<svg width="12" height="18" viewBox="0 0 12 18" fill="none" xmlns="http://www.w3.org/2000/svg">
<path d="M1.71875 17.7266C1.19531 17.7266 0.890625 17.3828 0.890625 16.7734V3.21094C0.890625 1.72656 1.63281 0.96875 3.10156 0.96875H9.21094C10.6797 0.96875 11.4219 1.72656 11.4219 3.21094V16.7734C11.4219 17.3828 11.1172 17.7266 10.5938 17.7266C10.2109 17.7266 9.98438 17.5078 9.28125 16.8281L6.22656 13.8203C6.19531 13.7812 6.125 13.7812 6.08594 13.8203L3.03125 16.8281C2.32812 17.5078 2.10156 17.7266 1.71875 17.7266ZM2.35938 15.6172L5.74219 12.3359C5.99219 12.0938 6.32031 12.0938 6.57031 12.3359L9.95312 15.6172C10.0703 15.7266 10.1875 15.6953 10.1875 15.5391V3.22656C10.1875 2.55469 9.83594 2.20312 9.15625 2.20312H3.16406C2.47656 2.20312 2.125 2.55469 2.125 3.22656V15.5391C2.125 15.6953 2.25 15.7266 2.35938 15.6172Z" fill="#151515"/>
</svg>
