<svg width="19" height="17" viewBox="0 0 19 17" fill="none" xmlns="http://www.w3.org/2000/svg">
<path d="M9.52869 2.08594C10.3021 1.25781 11.724 0.515625 13.5756 0.515625C16.0834 0.515625 18.1224 1.83594 18.7396 3.10938V14.7969C18.7396 15.8047 18.0834 16.1797 17.3646 16.1797C16.8568 16.1797 16.5677 16.0391 16.2474 15.7969C15.7474 15.4062 14.9349 14.9453 13.5756 14.9453C12.1927 14.9453 11.2552 15.4219 10.7943 15.75C10.4818 15.9531 10.1381 16.1797 9.52869 16.1797C8.92712 16.1797 8.57556 15.9688 8.27087 15.75C7.82556 15.4062 6.87244 14.9453 5.48962 14.9453C4.13025 14.9453 3.32556 15.4062 2.81775 15.7969C2.48962 16.0391 2.20837 16.1797 1.70056 16.1797C0.981812 16.1797 0.325562 15.8047 0.325562 14.7969V3.10938C0.934937 1.83594 2.974 0.515625 5.48962 0.515625C7.34119 0.515625 8.76306 1.25781 9.52869 2.08594ZM2.63025 3.88281V13.5781C3.39587 13.0234 4.4115 12.7812 5.48962 12.7812C6.56775 12.7812 7.60681 13.0234 8.38025 13.5547V3.88281C8.1615 3.39062 7.05212 2.63281 5.48962 2.63281C3.92712 2.63281 2.88025 3.39062 2.63025 3.88281ZM16.4271 3.88281C16.1849 3.39062 15.1302 2.63281 13.5756 2.63281C12.0052 2.63281 10.8959 3.39062 10.6849 3.88281V13.5547C11.4584 13.0234 12.4974 12.7812 13.5756 12.7812C14.6459 12.7812 15.6615 13.0234 16.4271 13.5781V3.88281Z" fill="#151515"/>
</svg>
