<svg width="16" height="12" viewBox="0 0 16 12" fill="none" xmlns="http://www.w3.org/2000/svg">
<path d="M12.0787 11.7832C11.1705 11.7832 10.7018 11.3438 10.7018 10.4766V2.0625C10.7018 1.19531 11.1705 0.75 12.0787 0.75H13.6608C14.5748 0.75 15.0494 1.19531 15.0494 2.0625V10.4766C15.0494 11.3438 14.5748 11.7832 13.6608 11.7832H12.0787ZM12.2369 10.8984H13.5084C13.9596 10.8984 14.1178 10.7461 14.1178 10.3066V2.23242C14.1178 1.79297 13.9596 1.63477 13.5084 1.63477H12.2369C11.7916 1.63477 11.6334 1.79297 11.6334 2.23242V10.3066C11.6334 10.7461 11.7916 10.8984 12.2369 10.8984ZM6.81116 11.7832C5.89709 11.7832 5.42834 11.3438 5.42834 10.4766V3.77344C5.42834 2.90625 5.89709 2.46094 6.81116 2.46094H8.39319C9.30725 2.46094 9.776 2.90625 9.776 3.77344V10.4766C9.776 11.3438 9.30725 11.7832 8.39319 11.7832H6.81116ZM6.96936 10.8984H8.24084C8.69202 10.8984 8.84436 10.7461 8.84436 10.3066V3.94336C8.84436 3.50391 8.69202 3.3457 8.24084 3.3457H6.96936C6.51819 3.3457 6.35999 3.50391 6.35999 3.94336V10.3066C6.35999 10.7461 6.51819 10.8984 6.96936 10.8984ZM1.54358 11.7832C0.629517 11.7832 0.160767 11.3438 0.160767 10.4766V5.47852C0.160767 4.61133 0.629517 4.16602 1.54358 4.16602H3.11975C4.03381 4.16602 4.50842 4.61133 4.50842 5.47852V10.4766C4.50842 11.3438 4.03381 11.7832 3.11975 11.7832H1.54358ZM1.69592 10.8984H2.96741C3.41858 10.8984 3.57678 10.7461 3.57678 10.3066V5.64844C3.57678 5.20312 3.41858 5.05078 2.96741 5.05078H1.69592C1.25061 5.05078 1.09241 5.20312 1.09241 5.64844V10.3066C1.09241 10.7461 1.25061 10.8984 1.69592 10.8984Z" fill="#151515"/>
</svg>
