<svg width="9" height="15" viewBox="0 0 9 15" fill="none" xmlns="http://www.w3.org/2000/svg">
<path d="M8.67188 7.35938C8.67188 7.76562 8.52344 8.10156 8.1875 8.42969L2.30469 14.1797C2.05469 14.4297 1.75781 14.5469 1.40625 14.5469C0.6875 14.5469 0.09375 13.9609 0.09375 13.25C0.09375 12.8828 0.242188 12.5547 0.515625 12.2891L5.60938 7.35156L0.515625 2.42969C0.242188 2.15625 0.09375 1.82812 0.09375 1.46875C0.09375 0.757812 0.6875 0.171875 1.40625 0.171875C1.76562 0.171875 2.05469 0.296875 2.30469 0.539062L8.1875 6.28906C8.52344 6.61719 8.66406 6.94531 8.67188 7.35938Z" fill="#151515"/>
</svg>
