<svg width="11" height="19" viewBox="0 0 11 19" fill="none" xmlns="http://www.w3.org/2000/svg">
<path d="M0.0595135 9.26003C0.0647939 9.07522 0.101757 8.90624 0.170402 8.75311C0.239047 8.59998 0.344655 8.45213 0.487226 8.30956L8.42366 0.626584C8.65072 0.399527 8.93058 0.285999 9.26324 0.285999C9.48502 0.285999 9.68567 0.338803 9.86521 0.444411C10.05 0.550018 10.1952 0.692589 10.3008 0.872123C10.4117 1.05166 10.4672 1.25231 10.4672 1.47409C10.4672 1.80147 10.3431 2.08925 10.0949 2.33743L2.91885 9.25211L10.0949 16.1747C10.3431 16.4282 10.4672 16.7159 10.4672 17.0381C10.4672 17.2651 10.4117 17.4684 10.3008 17.6479C10.1952 17.8275 10.05 17.97 9.86521 18.0757C9.68567 18.1865 9.48502 18.242 9.26324 18.242C8.93058 18.242 8.65072 18.1258 8.42366 17.8935L0.487226 10.2105C0.339374 10.0679 0.231126 9.92008 0.162481 9.76695C0.0938361 9.60854 0.0595135 9.43956 0.0595135 9.26003Z" fill="#151515"/>
</svg>
