<svg width="14" height="13" viewBox="0 0 14 13" fill="none" xmlns="http://www.w3.org/2000/svg">
<path d="M9.80469 12.709C9.51758 12.709 9.31836 12.5566 8.96094 12.2402L6.93945 10.4414H3.17773C1.43164 10.4414 0.494141 9.47461 0.494141 7.75781V3.26953C0.494141 1.55273 1.43164 0.585938 3.17773 0.585938H10.7246C12.4707 0.585938 13.4082 1.54688 13.4082 3.26953V7.75781C13.4082 9.48047 12.4707 10.4414 10.7246 10.4414H10.4434V11.9648C10.4434 12.416 10.2148 12.709 9.80469 12.709ZM9.56445 11.6367V9.9375C9.56445 9.62109 9.6875 9.49805 10.0039 9.49805H10.7246C11.9082 9.49805 12.4648 8.89453 12.4648 7.75195V3.26953C12.4648 2.12695 11.9082 1.5293 10.7246 1.5293H3.17773C2 1.5293 1.4375 2.12695 1.4375 3.26953V7.75195C1.4375 8.89453 2 9.49805 3.17773 9.49805H6.97461C7.30273 9.49805 7.4668 9.54492 7.68945 9.77344L9.56445 11.6367Z" fill="#151515"/>
</svg>
