<svg width="13" height="11" viewBox="0 0 13 11" fill="none" xmlns="http://www.w3.org/2000/svg">
<path d="M0.78064 3.61133C0.78064 1.53711 2.20447 0.0722656 4.10291 0.0722656C5.18689 0.0722656 6.07751 0.59375 6.599 1.37891C7.1322 0.587891 8.01111 0.0722656 9.09509 0.0722656C10.9935 0.0722656 12.4174 1.53711 12.4174 3.61133C12.4174 6.10742 10.3256 8.5625 7.02673 10.6719C6.89783 10.748 6.72205 10.8301 6.599 10.8301C6.47595 10.8301 6.30017 10.748 6.17712 10.6719C2.87244 8.5625 0.78064 6.10742 0.78064 3.61133ZM1.724 3.61133C1.724 5.79102 4.02673 8.14062 6.48181 9.76953C6.53455 9.81055 6.57556 9.83984 6.599 9.83984C6.62244 9.83984 6.66345 9.81055 6.72205 9.76953C9.17126 8.14062 11.474 5.79102 11.474 3.61133C11.474 2.05273 10.4662 1.01562 9.10681 1.01562C8.01111 1.01562 7.40173 1.71289 6.99744 2.28711C6.82751 2.51562 6.73962 2.58594 6.599 2.58594C6.45837 2.58594 6.35876 2.52148 6.20056 2.28711C5.82556 1.70117 5.19275 1.01562 4.09119 1.01562C2.73181 1.01562 1.724 2.05273 1.724 3.61133Z" fill="#151515"/>
</svg>
