<svg width="21" height="21" viewBox="0 0 21 21" fill="none" xmlns="http://www.w3.org/2000/svg">
<path d="M2.03125 11.4795C1.46875 11.4795 0.988281 11.0107 0.988281 10.4365C0.988281 9.8623 1.46875 9.38184 2.03125 9.38184H9.61328V1.81152C9.61328 1.24902 10.082 0.768555 10.6562 0.768555C11.2305 0.768555 11.7109 1.24902 11.7109 1.81152V9.38184H19.2812C19.8438 9.38184 20.3242 9.8623 20.3242 10.4365C20.3242 11.0107 19.8438 11.4795 19.2812 11.4795H11.7109V19.0615C11.7109 19.624 11.2305 20.1045 10.6562 20.1045C10.082 20.1045 9.61328 19.624 9.61328 19.0615V11.4795H2.03125Z" fill="#151515"/>
</svg>
