<svg width="15" height="19" viewBox="0 0 15 19" fill="none" xmlns="http://www.w3.org/2000/svg">
<path d="M7.74744 9.25C7.18494 9.25 6.73962 8.80469 6.73962 8.23438C6.73962 7.95312 6.849 7.75 7.02087 7.57031L8.76306 5.85156C8.46619 5.82031 8.14587 5.80469 7.79431 5.80469C5.00525 5.80469 2.82556 8.03125 2.82556 10.8906C2.82556 13.6875 5.06775 15.9375 7.86462 15.9375C10.6615 15.9375 12.9115 13.6875 12.9115 10.8906C12.9115 10.2578 13.3334 9.82031 13.9349 9.82031C14.5521 9.82031 14.9974 10.2578 14.9974 10.8906C14.9974 14.8359 11.8099 18.0312 7.86462 18.0312C3.91931 18.0312 0.731812 14.8359 0.731812 10.8906C0.731812 6.9375 3.85681 3.80469 7.79431 3.80469C8.02869 3.80469 8.27087 3.8125 8.51306 3.84375L7.02087 2.38281C6.849 2.20312 6.73962 1.99219 6.73962 1.71094C6.73962 1.13281 7.18494 0.679688 7.74744 0.679688C8.02869 0.679688 8.26306 0.773438 8.45056 0.976562L11.6381 4.21875C11.849 4.42969 11.9662 4.70312 11.9662 4.97656C11.9662 5.26562 11.8568 5.51562 11.6381 5.73438L8.44275 8.96875C8.26306 9.15625 8.02869 9.25 7.74744 9.25Z" fill="#151515"/>
</svg>
