<svg width="18" height="18" viewBox="0 0 18 18" fill="none" xmlns="http://www.w3.org/2000/svg">
<path d="M8.27344 17.9375C7.6875 17.9375 7.24219 17.5781 7.11719 17.0156L6.75 15.4766C6.55469 15.4141 6.36719 15.3359 6.20312 15.2578L4.85938 16.0859C4.38281 16.3828 3.79688 16.3281 3.39844 15.9297L2.39844 14.9375C1.99219 14.5312 1.9375 13.9297 2.25781 13.4531L3.07031 12.125C2.99219 11.9531 2.92188 11.7812 2.86719 11.6016L1.3125 11.2344C0.75 11.1094 0.398438 10.6562 0.398438 10.0781V8.6875C0.398438 8.10938 0.75 7.66406 1.3125 7.53125L2.84375 7.16406C2.91406 6.96875 2.98438 6.78906 3.05469 6.64062L2.24219 5.27344C1.92969 4.78125 1.97656 4.20312 2.39062 3.80469L3.39844 2.80469C3.8125 2.42969 4.32812 2.36719 4.82031 2.63281L6.19531 3.47656C6.35938 3.39062 6.55469 3.3125 6.75 3.25L7.11719 1.70312C7.24219 1.14062 7.6875 0.78125 8.27344 0.78125H9.6875C10.2734 0.78125 10.7266 1.14062 10.8438 1.70312L11.2188 3.25781C11.4141 3.32812 11.5938 3.40625 11.7578 3.48438L13.1406 2.63281C13.625 2.36719 14.1484 2.4375 14.5547 2.80469L15.5703 3.80469C15.9844 4.20312 16.0391 4.78125 15.7266 5.27344L14.9062 6.64062C14.9766 6.78906 15.0469 6.96875 15.1172 7.16406L16.6484 7.53125C17.2109 7.66406 17.5625 8.10938 17.5625 8.6875V10.0781C17.5625 10.6562 17.2109 11.1094 16.6484 11.2344L15.1016 11.6016C15.0391 11.7812 14.9688 11.9531 14.8906 12.125L15.7031 13.4531C16.0234 13.9297 15.9688 14.5312 15.5625 14.9375L14.5625 15.9297C14.1641 16.3281 13.5859 16.3828 13.1016 16.0859L11.7578 15.2578C11.5938 15.3359 11.4062 15.4141 11.2188 15.4766L10.8438 17.0156C10.7266 17.5781 10.2734 17.9375 9.6875 17.9375H8.27344ZM8.98438 12.0469C10.4609 12.0469 11.6641 10.8359 11.6641 9.35156C11.6641 7.89062 10.4609 6.67969 8.98438 6.67969C7.50781 6.67969 6.29688 7.89062 6.29688 9.35156C6.29688 10.8359 7.50781 12.0469 8.98438 12.0469Z" fill="#151515"/>
</svg>
