<svg width="14" height="19" viewBox="0 0 14 19" fill="none" xmlns="http://www.w3.org/2000/svg">
<path d="M6.92969 12.4844C6.59375 12.4844 6.30469 12.2031 6.30469 11.875V3.85156L6.35938 2.67969L5.82812 3.23438L4.64062 4.5C4.53125 4.625 4.36719 4.6875 4.21094 4.6875C3.89062 4.6875 3.64844 4.45312 3.64844 4.13281C3.64844 3.96875 3.71875 3.84375 3.83594 3.72656L6.47656 1.17969C6.63281 1.02344 6.77344 0.96875 6.92969 0.96875C7.08594 0.96875 7.22656 1.02344 7.38281 1.17969L10.0234 3.72656C10.1406 3.84375 10.2031 3.96875 10.2031 4.13281C10.2031 4.45312 9.96094 4.6875 9.63281 4.6875C9.48438 4.6875 9.32031 4.625 9.21094 4.5L8.03125 3.23438L7.5 2.67969L7.54688 3.85156V11.875C7.54688 12.2031 7.26562 12.4844 6.92969 12.4844ZM2.44531 18.6016C0.8125 18.6016 -0.0078125 17.7891 -0.0078125 16.1797V8.38281C-0.0078125 6.77344 0.8125 5.96094 2.44531 5.96094H4.625V7.21875H2.46094C1.67969 7.21875 1.25 7.64062 1.25 8.45312V16.1094C1.25 16.9219 1.67969 17.3438 2.46094 17.3438H11.3828C12.1562 17.3438 12.6016 16.9219 12.6016 16.1094V8.45312C12.6016 7.64062 12.1562 7.21875 11.3828 7.21875H9.22656V5.96094H11.4062C13.0391 5.96094 13.8594 6.77344 13.8594 8.38281V16.1797C13.8594 17.7891 13.0391 18.6016 11.4062 18.6016H2.44531Z" fill="#151515"/>
</svg>
