<svg width="15" height="15" viewBox="0 0 15 15" fill="none" xmlns="http://www.w3.org/2000/svg">
<path d="M3.2394 14.2937C3.11076 14.1938 3.03192 14.0592 3.00287 13.8899C2.97797 13.7205 3.00495 13.5186 3.08379 13.2841L4.38469 9.23262L1.06086 6.73139C0.865829 6.58809 0.730967 6.44045 0.656274 6.28847C0.581581 6.13648 0.569132 5.98016 0.618927 5.81949C0.668723 5.66316 0.766238 5.54591 0.911474 5.46775C1.05671 5.38959 1.24967 5.35268 1.49034 5.35702L5.56732 5.38307L6.80598 1.31206C6.88067 1.07323 6.97404 0.893019 7.08608 0.771432C7.20227 0.649844 7.3392 0.58905 7.49689 0.58905C7.65872 0.58905 7.79566 0.649844 7.9077 0.771432C8.02389 0.893019 8.11933 1.07323 8.19402 1.31206L9.43268 5.38307L13.5097 5.35702C13.7503 5.35268 13.9433 5.38959 14.0885 5.46775C14.2338 5.54591 14.3313 5.66316 14.3811 5.81949C14.4309 5.98016 14.4184 6.13648 14.3437 6.28847C14.269 6.44045 14.1342 6.58809 13.9391 6.73139L10.6153 9.23262L11.9162 13.2841C11.9951 13.5186 12.0199 13.7205 11.9909 13.8899C11.966 14.0592 11.8892 14.1938 11.7606 14.2937C11.632 14.3979 11.4867 14.4327 11.3249 14.3979C11.1631 14.3675 10.9867 14.2807 10.7958 14.1374L7.49689 11.6036L4.20418 14.1374C4.0133 14.2807 3.83694 14.3675 3.67511 14.3979C3.51327 14.4327 3.36804 14.3979 3.2394 14.2937Z" fill="#151515"/>
</svg>
