<svg width="18" height="15" viewBox="0 0 18 15" fill="none" xmlns="http://www.w3.org/2000/svg">
<path d="M1.20837 0.375H16.3099C16.8021 0.375 17.1927 0.765625 17.1927 1.25781C17.1927 1.75 16.8021 2.14062 16.3099 2.14062H1.20837C0.716187 2.14062 0.325562 1.75 0.325562 1.25781C0.325562 0.765625 0.716187 0.375 1.20837 0.375ZM1.20837 4.46094H16.3099C16.8021 4.46094 17.1927 4.85938 17.1927 5.35156C17.1927 5.84375 16.8021 6.23438 16.3099 6.23438H1.20837C0.716187 6.23438 0.325562 5.84375 0.325562 5.35156C0.325562 4.85938 0.716187 4.46094 1.20837 4.46094ZM0.333374 9.04688C0.333374 8.24219 0.817749 7.78906 1.50525 7.78906C2.19275 7.78906 2.68494 8.29688 2.68494 8.99219V9.99219C2.68494 10.2188 2.81775 10.3594 3.04431 10.3594H4.38806V9.53125C4.38806 8.79688 5.13025 8.52344 5.68494 8.97656L8.13806 10.9688C8.51306 11.2578 8.49744 11.7812 8.13806 12.0703L5.68494 14.0703C5.11462 14.5312 4.38806 14.2578 4.38806 13.5V12.7109H2.68494C1.19275 12.7109 0.333374 11.9062 0.333374 10.4219V9.04688ZM10.4271 8.55469H16.3099C16.8021 8.55469 17.1927 8.94531 17.1927 9.4375C17.1927 9.92969 16.8021 10.3203 16.3099 10.3203H10.4271C9.93494 10.3203 9.54431 9.92969 9.54431 9.4375C9.54431 8.94531 9.93494 8.55469 10.4271 8.55469ZM10.4271 12.6484H16.3099C16.8021 12.6484 17.1927 13.0391 17.1927 13.5312C17.1927 14.0234 16.8021 14.4141 16.3099 14.4141H10.4271C9.93494 14.4141 9.54431 14.0234 9.54431 13.5312C9.54431 13.0391 9.93494 12.6484 10.4271 12.6484Z" fill="#151515"/>
</svg>
