<svg width="70" height="58" viewBox="0 0 70 58" fill="none" xmlns="http://www.w3.org/2000/svg">
<path d="M63.1845 12.5792C58.8269 15.3522 53.8983 18.3052 52.2649 23.2053L51.0004 26.9988L50.6838 27.9487C50.2754 29.1737 49.129 30 47.8377 30L22.1623 30.0001C20.871 30.0001 19.7246 29.1738 19.3162 27.9487L18.9996 26.9988L15.6838 17.0513C15.2754 15.8263 14.129 15 12.8377 15H9.49721C4.25205 15 0 10.748 0 5.50279C0 5.22511 0.225108 5 0.502793 5H22.5C23.8807 5 25 3.88071 25 2.5C25 1.11929 26.1193 0 27.5 0H69.2458C69.6623 0 70 0.337662 70 0.75419C70 5.67931 67.2051 10.0207 63.1845 12.5792Z" fill="black"/>
<path d="M16.1775 54.8544C16.188 54.5694 16.5702 54.5371 16.7382 54.7675C17.2755 55.5045 18.1446 56 19.1623 56H50.8377C51.8554 56 52.7245 55.5045 53.2618 54.7675C53.4298 54.5371 53.812 54.5694 53.8225 54.8544C53.8832 56.5015 52.5859 58 50.8377 58H19.1623C17.4142 58 16.1168 56.5015 16.1775 54.8544Z" fill="black"/>
<path d="M16.1626 49.9213C16.1703 49.6339 16.5568 49.6028 16.7243 49.8363C17.2604 50.5839 18.1357 51.0881 19.1623 51.0881H50.8377C51.8642 51.0881 52.7395 50.5839 53.2756 49.8364C53.4432 49.6028 53.8297 49.6339 53.8374 49.9213C53.881 51.5489 52.5771 53 50.8377 53H19.1623C17.4229 53 16.1189 51.5489 16.1626 49.9213Z" fill="black"/>
<path d="M19.3162 35.0513C19.7246 33.8263 20.871 33 22.1623 33L47.8377 32.9999C49.129 32.9999 50.2754 33.8262 50.6838 35.0513L51.0004 36.0012L53.6838 44.0513C54.3313 45.9939 52.8854 48 50.8377 48H19.1623C17.1146 48 15.6687 45.9939 16.3162 44.0513L18.9996 36.0012L19.3162 35.0513Z" fill="black"/>
</svg>
