<svg width="123" height="33" viewBox="0 0 123 33" fill="none" xmlns="http://www.w3.org/2000/svg">
<path d="M60.6576 5.83204C58.8171 7.00323 56.7355 8.25043 56.0456 10.32L55.5115 11.9222L55.3778 12.3234C55.2054 12.8408 54.7212 13.1898 54.1758 13.1898L43.3317 13.1898C42.7863 13.1898 42.3021 12.8408 42.1296 12.3234L41.9959 11.9222L40.5954 7.72086C40.423 7.20347 39.9388 6.85448 39.3934 6.85448H37.9825C35.7672 6.85448 33.9713 5.05861 33.9713 2.84329C33.9713 2.72601 34.0664 2.63094 34.1837 2.63094H43.4743C44.0574 2.63094 44.5302 2.1582 44.5302 1.57505C44.5302 0.991901 45.0029 0.519165 45.5861 0.519165H63.2176C63.3935 0.519165 63.5361 0.661778 63.5361 0.8377C63.5361 2.91785 62.3557 4.75145 60.6576 5.83204Z" fill="#151515"/>
<path d="M40.8039 24.0378C40.8084 23.9174 40.9698 23.9038 41.0408 24.0011C41.2677 24.3124 41.6348 24.5217 42.0646 24.5217H55.4429C55.8727 24.5217 56.2397 24.3124 56.4667 24.0011C56.5376 23.9038 56.6991 23.9174 56.7035 24.0378C56.7291 24.7334 56.1812 25.717 55.4429 25.717H42.0646C41.3263 25.717 40.7783 24.7334 40.8039 24.0378Z" fill="#151515"/>
<path d="M40.7976 21.6036C40.8009 21.4823 40.9641 21.4691 41.0349 21.5678C41.2613 21.8835 41.631 22.0964 42.0646 22.0964H55.4428C55.8764 22.0964 56.2461 21.8835 56.4725 21.5678C56.5433 21.4691 56.7065 21.4823 56.7098 21.6036C56.7282 22.2911 56.1775 23.2546 55.4428 23.2546H42.0646C41.3299 23.2546 40.7792 22.2911 40.7976 21.6036Z" fill="#151515"/>
<path d="M42.1296 15.3232C42.3021 14.8059 42.7863 14.4569 43.3316 14.4569L54.1758 14.4568C54.7212 14.4568 55.2054 14.8058 55.3778 15.3232L56.6449 19.1244C56.9184 19.9449 56.3077 20.7922 55.4428 20.7922H42.0646C41.1997 20.7922 40.5891 19.9449 40.8625 19.1244L42.1296 15.3232Z" fill="#151515"/>
<path d="M1.32095 26.2758V24.9971H2.43195C2.55772 24.9971 2.6835 24.9622 2.80927 24.8923C2.93505 24.8085 3.03986 24.6967 3.12371 24.5569C3.20756 24.4032 3.24948 24.2215 3.24948 24.0119V13.6984C3.24948 13.4469 3.20756 13.2372 3.12371 13.0695C3.03986 12.9018 2.93505 12.7831 2.80927 12.7132C2.6835 12.6293 2.55772 12.5874 2.43195 12.5874H1.32095V11.3087H9.39145V12.5874H8.23852C8.07082 12.5874 7.92408 12.6293 7.79831 12.7132C7.68651 12.797 7.59567 12.9228 7.5258 13.0905C7.4699 13.2442 7.44195 13.4539 7.44195 13.7194V23.97C7.44195 24.1656 7.47689 24.3473 7.54676 24.515C7.63061 24.6687 7.72843 24.7875 7.84023 24.8713C7.96601 24.9552 8.09877 24.9971 8.23852 24.9971H9.39145V26.2758H1.32095ZM10.0996 26.2758V24.9971H10.1834C10.5049 24.9971 10.7704 24.9692 10.98 24.9133C11.1896 24.8434 11.3503 24.7106 11.4621 24.515C11.5739 24.3054 11.6298 23.9979 11.6298 23.5926V17.6393C11.6298 17.262 11.5809 16.9825 11.4831 16.8008C11.3853 16.6052 11.2385 16.4794 11.0429 16.4235C10.8472 16.3536 10.5957 16.3187 10.2882 16.3187H10.2044V15.04H15.3611L15.6336 16.3816H15.7384C15.9201 16.0881 16.1367 15.8156 16.3883 15.5641C16.6398 15.3125 16.9682 15.1099 17.3735 14.9562C17.7788 14.8024 18.2889 14.7256 18.9038 14.7256C20.0217 14.7256 20.8672 15.04 21.4402 15.6689C22.0132 16.2977 22.2997 17.3179 22.2997 18.7294V23.5298C22.2997 23.949 22.3346 24.2634 22.4045 24.4731C22.4883 24.6827 22.6211 24.8224 22.8028 24.8923C22.9844 24.9622 23.229 24.9971 23.5364 24.9971H23.6203V26.2758H18.233V19.6308C18.233 18.7364 18.1561 18.0446 18.0024 17.5555C17.8487 17.0664 17.5482 16.8218 17.101 16.8218C16.7516 16.8218 16.4721 16.9685 16.2625 17.262C16.0669 17.5555 15.9271 17.9398 15.8433 18.4149C15.7594 18.8901 15.7175 19.4072 15.7175 19.9662V23.6555C15.7175 24.0328 15.7594 24.3193 15.8433 24.515C15.9411 24.6967 16.0878 24.8224 16.2835 24.8923C16.4791 24.9622 16.7307 24.9971 17.0381 24.9971H17.122V26.2758H10.0996ZM24.4508 26.2758V24.9971H24.7652C24.891 24.9971 25.0587 24.9692 25.2683 24.9133C25.4779 24.8574 25.6666 24.7386 25.8343 24.5569C26.002 24.3752 26.0858 24.1027 26.0858 23.7394V12.797C26.0858 12.4477 25.995 12.1961 25.8133 12.0424C25.6456 11.8747 25.4569 11.7629 25.2473 11.707C25.0377 11.6511 24.877 11.6231 24.7652 11.6231H24.4508V10.3444H30.1735V18.3311C30.1735 18.5128 30.1665 18.7014 30.1525 18.8971C30.1525 19.0787 30.1455 19.2604 30.1315 19.4421C30.1176 19.6098 30.1036 19.7705 30.0896 19.9242C30.0756 20.064 30.0617 20.1828 30.0477 20.2806L32.7099 17.262C32.7518 17.2061 32.7798 17.1572 32.7938 17.1153C32.8217 17.0594 32.8357 17.0105 32.8357 16.9685C32.8357 16.9266 32.8357 16.8987 32.8357 16.8847C32.8357 16.703 32.7309 16.5493 32.5213 16.4235C32.3256 16.2838 32.0531 16.2139 31.7037 16.2139V15.04H37.4684V16.2139C37.2308 16.2139 36.9932 16.2418 36.7556 16.2977C36.5181 16.3536 36.2805 16.4515 36.0429 16.5912C35.8053 16.717 35.5608 16.8847 35.3092 17.0943C35.0577 17.3039 34.7922 17.5625 34.5127 17.8699L33.4855 19.0648L36.2735 23.2153C36.539 23.6066 36.7766 23.935 36.9862 24.2005C37.2098 24.4661 37.4125 24.6687 37.5941 24.8085C37.7898 24.9342 37.9715 24.9971 38.1392 24.9971H38.223V26.2758H37.9295C37.0491 26.2758 36.3084 26.2479 35.7075 26.192C35.1066 26.1221 34.5965 26.0033 34.1773 25.8356C33.772 25.6679 33.4156 25.4443 33.1082 25.1648C32.8147 24.8713 32.5282 24.494 32.2487 24.0328L30.7395 21.5593L30.1735 22.1043V23.6555C30.1735 24.0468 30.2573 24.3403 30.425 24.5359C30.5927 24.7176 30.7814 24.8434 30.991 24.9133C31.2006 24.9692 31.3613 24.9971 31.4731 24.9971H31.8714V26.2758H24.4508Z" fill="#151515"/>
<path d="M59.5595 26.2758V24.9971H60.2932C60.5866 24.9971 60.8172 24.9622 60.9849 24.8923C61.1666 24.8224 61.2924 24.7176 61.3622 24.5779C61.4461 24.4241 61.488 24.2285 61.488 23.9909V13.6355C61.488 13.384 61.4461 13.1813 61.3622 13.0276C61.2924 12.8739 61.1875 12.7621 61.0478 12.6922C60.922 12.6224 60.7753 12.5874 60.6076 12.5874H59.5595V11.3087H71.9482L72.053 15.3125H70.3131L70.2083 14.2225C70.1664 13.8032 70.0756 13.4888 69.9358 13.2792C69.7961 13.0695 69.6354 12.9298 69.4537 12.8599C69.286 12.79 69.1113 12.7551 68.9296 12.7551H65.6595V18.2263H70.5857V19.6308H65.6595V23.97C65.6595 24.1796 65.6944 24.3613 65.7643 24.515C65.8342 24.6687 65.953 24.7875 66.1207 24.8713C66.2884 24.9552 66.512 24.9971 66.7915 24.9971H68.0492V26.2758H59.5595ZM78.4364 26.4854C76.6336 26.4854 75.2152 25.9963 74.181 25.0181C73.1469 24.0398 72.6298 22.5655 72.6298 20.595C72.6298 18.6246 73.1259 17.1572 74.1181 16.1929C75.1104 15.2147 76.5707 14.7256 78.4993 14.7256C80.302 14.7256 81.7205 15.2147 82.7546 16.1929C83.7888 17.1572 84.3058 18.6246 84.3058 20.595C84.3058 22.5655 83.8097 24.0398 82.8175 25.0181C81.8253 25.9963 80.3649 26.4854 78.4364 26.4854ZM78.4783 24.9971C78.8976 24.9971 79.233 24.8294 79.4845 24.494C79.736 24.1586 79.9107 23.6625 80.0086 23.0057C80.1204 22.3489 80.1763 21.5453 80.1763 20.595C80.1763 19.6308 80.1204 18.8272 80.0086 18.1844C79.8968 17.5275 79.7151 17.0384 79.4635 16.717C79.212 16.3956 78.8766 16.2349 78.4573 16.2349C78.0381 16.2349 77.7027 16.3956 77.4512 16.717C77.2136 17.0384 77.0389 17.5275 76.9271 18.1844C76.8293 18.8272 76.7804 19.6308 76.7804 20.595C76.7804 21.5453 76.8363 22.3489 76.9481 23.0057C77.0599 23.6625 77.2345 24.1586 77.4721 24.494C77.7237 24.8294 78.0591 24.9971 78.4783 24.9971ZM85.3885 26.2758V24.9971H85.4933C85.8147 24.9971 86.0803 24.9622 86.2899 24.8923C86.5135 24.8224 86.6812 24.6827 86.793 24.4731C86.9188 24.2495 86.9816 23.921 86.9816 23.4878V17.7441C86.9816 17.3249 86.9327 17.0175 86.8349 16.8218C86.7511 16.6122 86.6113 16.4794 86.4157 16.4235C86.22 16.3536 85.9685 16.3187 85.661 16.3187H85.5772V15.04H90.4614L90.9016 16.9895H91.0064C91.244 16.4445 91.5165 16.0113 91.8239 15.6898C92.1314 15.3544 92.4878 15.1169 92.893 14.9771C93.2983 14.8374 93.7734 14.7675 94.3185 14.7675C95.143 14.7675 95.7299 14.9701 96.0793 15.3754C96.4426 15.7667 96.6243 16.2558 96.6243 16.8428C96.6243 17.6254 96.3378 18.1844 95.7649 18.5198C95.1919 18.8552 94.4372 19.0229 93.5009 19.0229C93.5009 18.6316 93.48 18.3031 93.438 18.0376C93.3961 17.7721 93.3123 17.5695 93.1865 17.4297C93.0607 17.276 92.8651 17.1991 92.5995 17.1991C92.348 17.1991 92.1244 17.29 91.9288 17.4716C91.7471 17.6533 91.5934 17.9049 91.4676 18.2263C91.3418 18.5337 91.244 18.8831 91.1741 19.2744C91.1042 19.6517 91.0693 20.043 91.0693 20.4483V23.5926C91.0693 23.9979 91.1182 24.3054 91.216 24.515C91.3278 24.7106 91.4816 24.8434 91.6772 24.9133C91.8729 24.9692 92.0965 24.9971 92.348 24.9971H93.0817V26.2758H85.3885ZM101.939 31.16C100.164 31.16 98.8368 30.9295 97.9564 30.4683C97.076 30.0071 96.6358 29.3293 96.6358 28.4349C96.6358 27.9877 96.7546 27.5895 96.9921 27.2401C97.2437 26.9047 97.5931 26.6322 98.0403 26.4226C98.4875 26.2129 99.0115 26.0941 99.6124 26.0662C99.1792 25.9125 98.767 25.6959 98.3757 25.4164C97.9983 25.1369 97.8097 24.7386 97.8097 24.2215C97.8097 23.7324 98.0123 23.3131 98.4176 22.9638C98.8368 22.6004 99.3818 22.251 100.053 21.9157C99.3539 21.72 98.753 21.3567 98.2499 20.8256C97.7608 20.2946 97.5162 19.5539 97.5162 18.6036C97.5162 17.3598 97.9075 16.4026 98.6901 15.7318C99.4867 15.061 100.73 14.7256 102.421 14.7256C102.98 14.7256 103.47 14.7675 103.889 14.8513C104.308 14.9212 104.713 15.047 105.105 15.2287C105.342 14.9771 105.573 14.7605 105.796 14.5788C106.034 14.3832 106.292 14.2365 106.572 14.1386C106.851 14.0268 107.18 13.9709 107.557 13.9709C108.046 13.9709 108.417 14.1037 108.668 14.3692C108.934 14.6208 109.066 14.9282 109.066 15.2916C109.066 15.6549 108.948 15.9763 108.71 16.2558C108.473 16.5353 108.046 16.6751 107.431 16.6751C107.431 16.2977 107.341 16.0392 107.159 15.8995C106.977 15.7597 106.816 15.6898 106.677 15.6898C106.523 15.6898 106.39 15.7108 106.278 15.7527C106.167 15.7947 106.069 15.8296 105.985 15.8575C106.348 16.137 106.649 16.4934 106.886 16.9266C107.138 17.3598 107.264 17.8839 107.264 18.4988C107.264 19.6447 106.872 20.5741 106.09 21.2868C105.321 21.9995 104.098 22.3559 102.421 22.3559C102.282 22.3559 102.072 22.3489 101.793 22.3349C101.513 22.3209 101.317 22.3 101.206 22.272C101.066 22.3139 100.919 22.4327 100.765 22.6284C100.626 22.81 100.556 23.0057 100.556 23.2153C100.556 23.4249 100.647 23.5717 100.828 23.6555C101.01 23.7394 101.22 23.7813 101.457 23.7813H103.973C104.979 23.7813 105.81 23.9071 106.467 24.1586C107.124 24.3962 107.613 24.7595 107.934 25.2487C108.256 25.7238 108.417 26.3247 108.417 27.0514C108.417 28.3231 107.886 29.3223 106.823 30.049C105.761 30.7897 104.133 31.16 101.939 31.16ZM102.002 29.7346C102.687 29.7346 103.274 29.6717 103.763 29.5459C104.266 29.4202 104.65 29.2245 104.916 28.959C105.181 28.7074 105.314 28.4 105.314 28.0367C105.314 27.7711 105.202 27.5336 104.979 27.3239C104.769 27.1283 104.427 27.0305 103.952 27.0305H101.247C101.052 27.0305 100.828 27.0724 100.577 27.1562C100.339 27.2401 100.13 27.3868 99.9478 27.5964C99.7801 27.8061 99.6963 28.0926 99.6963 28.4559C99.6963 28.7633 99.8011 29.0079 100.011 29.1896C100.22 29.3852 100.5 29.525 100.849 29.6088C101.213 29.6927 101.597 29.7346 102.002 29.7346ZM102.379 20.9514C102.771 20.9514 103.057 20.8466 103.239 20.6369C103.435 20.4273 103.56 20.1478 103.616 19.7985C103.686 19.4351 103.721 19.0438 103.721 18.6246C103.721 18.1913 103.686 17.7861 103.616 17.4088C103.56 17.0314 103.435 16.731 103.239 16.5074C103.057 16.2698 102.771 16.151 102.379 16.151C102.002 16.151 101.716 16.2698 101.52 16.5074C101.324 16.7449 101.192 17.0524 101.122 17.4297C101.052 17.807 101.017 18.2123 101.017 18.6455C101.017 19.0508 101.052 19.4351 101.122 19.7985C101.192 20.1478 101.324 20.4273 101.52 20.6369C101.716 20.8466 102.002 20.9514 102.379 20.9514ZM115.715 26.4854C113.731 26.4854 112.256 25.9823 111.292 24.9762C110.342 23.956 109.867 22.5305 109.867 20.6998C109.867 18.7294 110.356 17.2411 111.334 16.2349C112.312 15.2287 113.689 14.7256 115.464 14.7256C117.113 14.7256 118.405 15.1588 119.342 16.0252C120.292 16.8777 120.767 18.1354 120.767 19.7985V20.9514H113.975C114.003 21.8178 114.122 22.5305 114.332 23.0895C114.541 23.6485 114.849 24.0608 115.254 24.3263C115.659 24.5918 116.162 24.7246 116.763 24.7246C117.238 24.7246 117.644 24.6408 117.979 24.4731C118.328 24.3054 118.622 24.0748 118.859 23.7813C119.097 23.4878 119.293 23.1594 119.446 22.7961C119.712 22.8659 119.929 22.9917 120.096 23.1734C120.278 23.3551 120.369 23.5857 120.369 23.8651C120.369 24.2844 120.215 24.6967 119.908 25.1019C119.6 25.5072 119.104 25.8426 118.419 26.1081C117.748 26.3597 116.847 26.4854 115.715 26.4854ZM116.763 19.4631C116.763 18.7643 116.721 18.1774 116.637 17.7022C116.554 17.2271 116.421 16.8707 116.239 16.6331C116.071 16.3816 115.848 16.2558 115.568 16.2558C115.275 16.2558 115.009 16.3816 114.772 16.6331C114.534 16.8707 114.346 17.2271 114.206 17.7022C114.08 18.1774 114.017 18.7643 114.017 19.4631H116.763Z" fill="#151515"/>
</svg>
